<svg width="32" height="32" viewBox="0 0 32 32" fill="none" xmlns="http://www.w3.org/2000/svg">
<g clip-path="url(#clip0_54_2)">
<rect width="32" height="32" fill="white"/>
<rect width="32" height="32" fill="#0B0A0A"/>
<path d="M19.2364 26C17.9299 26 16.7269 25.7593 15.6276 25.2778C14.5441 24.7778 13.5961 24.0833 12.7835 23.1944C11.9709 22.287 11.3416 21.2222 10.8954 20C10.4493 18.7778 10.2262 17.4444 10.2262 16C10.2262 14.5556 10.4493 13.2222 10.8954 12C11.3416 10.7778 11.9709 9.72222 12.7835 8.83333C13.612 7.92593 14.576 7.23148 15.6754 6.75C16.7747 6.25 17.9777 6 19.2842 6C20.7023 6 21.9769 6.26852 23.1081 6.80556C24.2553 7.34259 25.2193 8.12963 26 9.16667L24.0402 11.3889C23.387 10.6296 22.678 10.0741 21.9132 9.72222C21.1643 9.35185 20.3358 9.16667 19.4276 9.16667C18.5513 9.16667 17.7387 9.33333 16.9898 9.66667C16.241 10 15.5957 10.4722 15.054 11.0833C14.5122 11.6944 14.09 12.4167 13.7873 13.25C13.5005 14.0833 13.3571 15 13.3571 16C13.3571 16.9815 13.5005 17.8889 13.7873 18.7222C14.09 19.5556 14.5122 20.287 15.054 20.9167C15.5957 21.5278 16.233 22 16.9659 22.3333C17.6989 22.6667 18.5114 22.8333 19.4037 22.8333C20.2322 22.8333 21.0289 22.6852 21.7937 22.3889C22.1526 22.2441 22.5031 22.0563 22.8452 21.8255V15.7778H25.7849V23.5278C24.9086 24.3426 23.8889 24.963 22.7258 25.3889C21.5786 25.7963 20.4155 26 19.2364 26Z" fill="#046BA5"/>
<path d="M6 25.6759V6.23145H13.8391C15.8466 6.23145 17.3762 6.69441 18.4278 7.62033C19.4794 8.52774 20.0052 9.74996 20.0052 11.287C20.0052 12.324 19.798 13.2129 19.3838 13.9537C18.9695 14.6759 18.4119 15.2407 17.7108 15.6481C17.0257 16.037 16.2768 16.2314 15.4643 16.2314L15.8944 15.2314C16.8345 15.2314 17.6789 15.4351 18.4278 15.8426C19.1767 16.2314 19.7662 16.8055 20.1964 17.5648C20.6425 18.324 20.8656 19.2685 20.8656 20.3981C20.8656 22.0648 20.3159 23.3611 19.2165 24.287C18.1171 25.2129 16.484 25.6759 14.3171 25.6759H6ZM9.10695 22.8426H14.1259C15.289 22.8426 16.1812 22.6203 16.8026 22.1759C17.424 21.7314 17.7347 21.0185 17.7347 20.037C17.7347 19.074 17.424 18.3703 16.8026 17.9259C16.1812 17.4629 15.289 17.2314 14.1259 17.2314H8.86795V14.4259H13.5045C14.5879 14.4259 15.4165 14.2037 15.99 13.7592C16.5796 13.3148 16.8743 12.6481 16.8743 11.7592C16.8743 10.8518 16.5796 10.1759 15.99 9.73144C15.4165 9.287 14.5879 9.06478 13.5045 9.06478H9.10695V22.8426Z" fill="#10A6E5"/>
</g>
<defs>
<clipPath id="clip0_54_2">
<rect width="32" height="32" fill="white"/>
</clipPath>
</defs>
</svg>
