<svg width="70" height="76" viewBox="0 0 70 76" fill="none" xmlns="http://www.w3.org/2000/svg">
<path d="M35 46.391H25.7143L21.3158 57.3684H13.1579H13.1203L35 8.30827V8.34586V0L0 12.4812L5.33835 58.7594L35 75.188V46.391Z" fill="url(#paint0_linear_41_443)"/>
<path d="M28.609 39.6241H35V24.2482L28.609 39.6241Z" fill="url(#paint1_linear_41_443)"/>
<g opacity="0.9">
<path d="M35 46.391H44.2857L48.6842 57.3684H56.8421H56.8797L35 8.30827V8.34586V0L70 12.4812L64.6616 58.7594L35 75.188V46.391Z" fill="url(#paint2_linear_41_443)"/>
<path d="M41.391 39.6241H35V24.2482L41.391 39.6241Z" fill="url(#paint3_linear_41_443)"/>
</g>
<defs>
<linearGradient id="paint0_linear_41_443" x1="17.5" y1="0" x2="17.5" y2="75.188" gradientUnits="userSpaceOnUse">
<stop stop-color="#3CBEF4"/>
<stop offset="1" stop-color="#0F96CF"/>
</linearGradient>
<linearGradient id="paint1_linear_41_443" x1="31.8045" y1="24.2482" x2="31.8045" y2="39.6241" gradientUnits="userSpaceOnUse">
<stop stop-color="#3CBEF4"/>
<stop offset="1" stop-color="#0F96CF"/>
</linearGradient>
<linearGradient id="paint2_linear_41_443" x1="52.5" y1="0" x2="52.5" y2="75.188" gradientUnits="userSpaceOnUse">
<stop stop-color="#54BCE9"/>
<stop offset="1" stop-color="#2D94C0"/>
</linearGradient>
<linearGradient id="paint3_linear_41_443" x1="38.1955" y1="24.2482" x2="38.1955" y2="39.6241" gradientUnits="userSpaceOnUse">
<stop stop-color="#54BCE9"/>
<stop offset="1" stop-color="#2D94C0"/>
</linearGradient>
</defs>
</svg>
