<svg width="70" height="70" viewBox="0 0 70 70" fill="none" xmlns="http://www.w3.org/2000/svg">
<path d="M58.3333 0H11.6667C5.22958 0.0175 0.0175 5.22958 0 11.6667V58.3333C0 64.75 5.25 70 11.6667 70H58.3333C64.75 70 70 64.75 70 58.3333V11.6667C70 5.25 64.75 0 58.3333 0ZM51.9546 49.1604C51.3713 50.5662 50.4467 51.8058 49.2625 52.7596C48.0375 53.7513 46.4858 54.5679 44.5754 55.1513C42.6679 55.7433 40.3988 56.0408 37.7708 56.0408H19.0108V15.2075H38.85C42.5192 15.2075 45.4592 16.0329 47.6583 17.7158C49.875 19.4075 50.9775 21.9275 50.9775 25.3283C50.9775 27.3846 50.4758 29.1492 49.4667 30.6075C48.4633 32.0571 47.0167 33.1917 45.15 33.9792V34.1133C47.6408 34.6383 49.5688 35.8196 50.8375 37.6571C52.1063 39.4946 52.7567 41.8163 52.7567 44.6192C52.7567 46.1883 52.4533 47.6817 51.8817 49.0758L51.9546 49.1546V49.1604ZM43.8579 39.0979C42.6621 38.0042 40.9821 37.4704 38.8121 37.4704H26.2062V50.2104H38.8471C41.0054 50.2104 42.6971 49.6504 43.8929 48.5188C45.0887 47.3958 45.7013 45.7946 45.7013 43.7354C45.6808 41.7229 45.0887 40.1654 43.8929 39.0979H43.8433H43.8579ZM42.1079 30.8642C43.2629 29.8842 43.8288 28.4812 43.8288 26.6525C43.8288 24.5992 43.3183 23.1408 42.2829 22.3067C41.2562 21.4754 39.7746 21.0438 37.8263 21.0438H26.1596V32.3108H37.8263C39.5267 32.3108 40.9762 31.815 42.0962 30.8642H42.1079Z" fill="url(#paint0_linear_43_468)"/>
<defs>
<linearGradient id="paint0_linear_43_468" x1="35" y1="0" x2="35" y2="70" gradientUnits="userSpaceOnUse">
<stop stop-color="#3CBEF4"/>
<stop offset="1" stop-color="#0F96CF"/>
</linearGradient>
</defs>
</svg>
