<svg width="66" height="66" viewBox="0 0 66 66" fill="none" xmlns="http://www.w3.org/2000/svg">
<path d="M35.6759 30.351H29.5312C29.5312 35.6491 29.5072 40.9144 29.5072 46.2191C29.5794 46.9388 29.6187 47.7766 29.6187 48.6232C29.6187 50.395 29.4416 52.1254 29.1025 53.7966L29.1309 53.6304C28.2297 55.5138 25.9044 55.2732 24.85 54.9429C23.8634 54.4135 23.0825 53.6107 22.5947 52.635L22.5816 52.6044C22.4853 52.3988 22.3694 52.2238 22.2316 52.0663L22.2338 52.0685L17.2441 55.1441C18.0469 56.8722 19.2872 58.281 20.825 59.2675L20.8644 59.2916C22.5334 60.2257 24.5284 60.7747 26.6503 60.7747C27.7091 60.7747 28.7372 60.6369 29.715 60.381L29.6319 60.4007C31.7931 59.8582 33.5541 58.4538 34.5625 56.5857L34.5822 56.5441C35.3675 54.5447 35.8203 52.2282 35.8203 49.8066C35.8203 48.9579 35.7634 48.1222 35.6563 47.3019L35.6672 47.3982C35.7 41.7829 35.6672 36.1654 35.6672 30.5063L35.6759 30.351ZM60.2328 50.1566C59.7537 47.1641 57.8047 44.6485 52.0231 42.3035C50.0106 41.3607 47.775 40.7044 47.11 39.1863C46.9722 38.8407 46.8934 38.4403 46.8934 38.0225C46.8934 37.7513 46.9263 37.4888 46.9897 37.2372L46.9853 37.2591C47.4403 36.056 48.5844 35.2138 49.9231 35.2138C50.3584 35.2138 50.7719 35.3013 51.1459 35.461L51.1263 35.4522C52.3337 35.8679 53.2875 36.7516 53.7841 37.8847L53.795 37.9132C56.6213 36.0647 56.6213 36.0647 58.5922 34.8375C58.1197 34.0304 57.5881 33.3304 56.9866 32.7004L56.9909 32.7047C55.3131 30.9241 52.9397 29.8172 50.3059 29.8172C49.9319 29.8172 49.5622 29.8391 49.2013 29.8829L49.245 29.8785L47.3178 30.1213C45.4453 30.5457 43.8463 31.5191 42.6519 32.86L42.6453 32.8688C41.475 34.3235 40.7663 36.1916 40.7663 38.226C40.7663 41.0238 42.1072 43.5088 44.1788 45.075L44.2006 45.0904C47.9325 47.8794 53.3881 48.4919 54.0859 51.1169C54.7422 54.315 51.7081 55.341 48.7113 54.9713C46.6178 54.4944 44.9028 53.1557 43.9338 51.3575L43.9141 51.3204L38.9113 54.1925C39.4997 55.365 40.2391 56.3669 41.1228 57.2222L41.125 57.2244C45.8806 62.0238 57.7719 61.7788 59.9069 54.4791C60.1541 53.6829 60.2963 52.7685 60.2963 51.8213C60.2963 51.165 60.2284 50.5241 60.0972 49.9072L60.1081 49.9685L60.2328 50.1566ZM0 0.196289H65.6053V65.8016H0V0.196289Z" fill="url(#paint0_linear_43_466)"/>
<defs>
<linearGradient id="paint0_linear_43_466" x1="32.8027" y1="0.196289" x2="32.8027" y2="65.8016" gradientUnits="userSpaceOnUse">
<stop stop-color="#3CBEF4"/>
<stop offset="1" stop-color="#0F96CF"/>
</linearGradient>
</defs>
</svg>
