<svg width="35" height="33" viewBox="0 0 35 33" fill="none" xmlns="http://www.w3.org/2000/svg">
<path d="M8.1471 10.3809H1.12079C0.808952 10.3809 0.556274 10.6147 0.556274 10.9031V31.7852C0.556274 32.0737 0.808952 32.3075 1.12079 32.3075H8.1471C8.45894 32.3075 8.71161 32.0737 8.71161 31.7852V10.9031C8.71161 10.6147 8.45894 10.3809 8.1471 10.3809Z" fill="#E5EEF5"/>
<path d="M4.63649 0C2.0799 0 0 1.92206 0 4.28457C0 6.64813 2.0799 8.57091 4.63649 8.57091C7.19103 8.57091 9.26924 6.64802 9.26924 4.28457C9.26936 1.92206 7.19103 0 4.63649 0Z" fill="#E5EEF5"/>
<path d="M26.019 9.86194C23.197 9.86194 21.1108 10.9842 19.8455 12.2594V10.9032C19.8455 10.6148 19.5929 10.3809 19.281 10.3809H12.5521C12.2403 10.3809 11.9876 10.6148 11.9876 10.9032V31.7853C11.9876 32.0738 12.2403 32.3075 12.5521 32.3075H19.563C19.8749 32.3075 20.1276 32.0738 20.1276 31.7853V21.4535C20.1276 17.9719 21.1498 16.6156 23.7732 16.6156C26.6303 16.6156 26.8574 18.79 26.8574 21.6326V31.7854C26.8574 32.0739 27.1101 32.3076 27.4219 32.3076H34.4355C34.7473 32.3076 35 32.0739 35 31.7854V20.3312C35 15.1542 33.9329 9.86194 26.019 9.86194Z" fill="#E5EEF5"/>
</svg>
