<svg width="100" height="53" viewBox="0 0 100 53" fill="none" xmlns="http://www.w3.org/2000/svg">
<path d="M74.0231 18.8284H70.0954L67.9448 29.8613H71.4357C71.6224 29.8746 71.8425 29.8846 72.0626 29.8846C73.753 29.8846 75.3234 29.3878 76.6438 28.5343L76.6104 28.5543C77.8474 27.454 78.6877 25.9336 78.9044 24.2165L78.9077 24.1831C79.0678 23.723 79.1611 23.1962 79.1611 22.646C79.1611 21.6758 78.871 20.7722 78.3742 20.0187L78.3842 20.0353C77.394 19.2551 76.1303 18.7817 74.7533 18.7817C74.4965 18.7817 74.2398 18.7984 73.9897 18.8317L74.0231 18.8284ZM84.836 24.5866C84.5859 25.9136 84.1424 27.0972 83.5356 28.1742L83.5656 28.1175C82.9188 29.2445 82.1419 30.2114 81.2383 31.0383L81.2283 31.045C80.1747 32.0519 78.8977 32.8388 77.4773 33.3189L77.4073 33.3389C75.9369 33.7757 74.2498 34.0291 72.4993 34.0291C72.3393 34.0291 72.1826 34.0257 72.0259 34.0224H72.0492H67.1312L65.7675 41.0309H60.026L65.1507 14.6739H76.187C76.4304 14.6506 76.7171 14.6372 77.0039 14.6372C79.5179 14.6372 81.7985 15.6508 83.4523 17.2913C84.5159 18.6583 85.1594 20.4021 85.1594 22.2926C85.1594 23.1095 85.0393 23.8997 84.816 24.6432L84.8293 24.5866H84.836ZM53.1842 34.0257L55.4481 22.3626C55.5648 22.0459 55.6315 21.6825 55.6315 21.3024C55.6315 20.6922 55.4581 20.122 55.1581 19.6386L55.1647 19.6519C54.5145 19.1784 53.701 18.8917 52.8208 18.8917C52.6374 18.8917 52.4573 18.905 52.2806 18.9284L52.3006 18.9251H47.7494L44.8153 34.0291H39.1171L44.2418 7.66871H49.9367L48.573 14.6772H53.6476C53.9577 14.6439 54.3145 14.6239 54.6779 14.6239C56.7618 14.6239 58.6957 15.2674 60.2894 16.371L60.2561 16.351C61.113 17.3213 61.6364 18.605 61.6364 20.0087C61.6364 20.6355 61.5331 21.239 61.3397 21.8025L61.3497 21.7625L58.9657 34.0291L53.1842 34.0257ZM36.4164 31.045C35.3628 32.0552 34.0858 32.8388 32.6654 33.3189L32.5954 33.3389C31.125 33.7757 29.4379 34.0291 27.6907 34.0291C27.534 34.0291 27.374 34.0257 27.2173 34.0224H27.2406H22.3193L20.9556 41.0276H15.2141L20.3388 14.6706H31.3817C31.6251 14.6472 31.9118 14.6339 32.1986 14.6339C34.7126 14.6339 36.9932 15.6475 38.647 17.2879C39.7106 18.655 40.3508 20.3988 40.3508 22.2893C40.3508 23.1095 40.2307 23.8997 40.0073 24.6466L40.0207 24.5899C39.5339 27.1706 38.2435 29.3945 36.4231 31.0383L36.413 31.0483L36.4164 31.045ZM50 0C22.3893 0 0 11.7731 0 26.3004C0 40.8276 22.386 52.604 50 52.604C77.614 52.604 100 40.8242 100 26.3004C100 11.7765 77.614 0 50 0ZM29.2078 18.8284H25.2734L23.1262 29.8613H26.6171C26.8038 29.8746 27.0205 29.8846 27.2406 29.8846C28.931 29.8846 30.5048 29.3878 31.8252 28.5343L31.7918 28.5543C33.0288 27.4573 33.8657 25.9336 34.0791 24.2165L34.0824 24.1831C34.2458 23.723 34.3392 23.1929 34.3392 22.6427C34.3392 21.6758 34.0524 20.7722 33.5556 20.022L33.5656 20.0387C32.5754 19.2585 31.3117 18.785 29.9347 18.785C29.6779 18.785 29.4212 18.8017 29.1711 18.835L29.2011 18.8317L29.2078 18.8284Z" fill="url(#paint0_linear_44_474)"/>
<defs>
<linearGradient id="paint0_linear_44_474" x1="50" y1="0" x2="50" y2="52.604" gradientUnits="userSpaceOnUse">
<stop stop-color="#3CBEF4"/>
<stop offset="1" stop-color="#0F96CF"/>
</linearGradient>
</defs>
</svg>
