<svg width="57" height="70" viewBox="0 0 57 70" fill="none" xmlns="http://www.w3.org/2000/svg">
<path d="M45.2138 0H21.9558H20.1536L18.88 1.2734L1.2734 18.8811L0 20.1545V21.9559V58.2567C0 64.7317 5.2675 70.0001 11.7436 70.0001H45.2138C51.6879 70.0001 56.9554 64.7317 56.9554 58.2567V11.7436C56.9554 5.2675 51.6879 0 45.2138 0ZM52.6081 58.2565C52.6081 62.3413 49.2976 65.6518 45.2138 65.6518H11.7436C7.65789 65.6518 4.34738 62.3413 4.34738 58.2565V21.9558H15.7929C19.1952 21.9558 21.9558 19.1971 21.9558 15.7939V4.3482H45.2138C49.2976 4.3482 52.6081 7.65871 52.6081 11.7436V58.2565Z" fill="url(#paint0_linear_43_460)"/>
<path d="M16.6616 36.7704C17.4597 36.7704 17.9063 37.0672 18.3705 37.6982C18.7408 38.2184 19.1131 38.4046 19.577 38.4046C20.2644 38.4046 20.8218 37.9024 20.8218 37.1789C20.8218 36.8821 20.7283 36.6214 20.5793 36.3617C19.9474 35.2286 18.5556 34.3562 16.6616 34.3562C14.4508 34.3562 12.8166 35.3957 12.1483 37.4577C11.8886 38.293 11.7969 38.9431 11.7969 40.8741C11.7969 42.8053 11.8885 43.4555 12.1483 44.2907C12.8166 46.3526 14.4508 47.3922 16.6616 47.3922C18.5556 47.3922 19.9474 46.5197 20.5793 45.3865C20.7283 45.1269 20.8218 44.8663 20.8218 44.5695C20.8218 43.8449 20.2643 43.3438 19.577 43.3438C19.1131 43.3438 18.7408 43.5299 18.3705 44.0493C17.9065 44.6812 17.4597 44.9782 16.6616 44.9782C15.6402 44.9782 15.0464 44.4398 14.7677 43.5854C14.6188 43.1215 14.5634 42.6757 14.5634 40.8743C14.5634 39.073 14.6189 38.6272 14.7677 38.1633C15.0464 37.3088 15.6402 36.7704 16.6616 36.7704Z" fill="url(#paint1_linear_43_460)"/>
<path d="M28.3613 39.593L27.6931 39.4995C26.2268 39.2953 25.7246 38.8132 25.7246 38.1068C25.7246 37.3087 26.3184 36.7512 27.4333 36.7512C28.2123 36.7512 28.9931 36.9746 29.606 37.2714C29.8657 37.4013 30.1444 37.4757 30.4041 37.4757C31.0723 37.4757 31.5935 36.9745 31.5935 36.2872C31.5935 35.8413 31.3893 35.47 30.9425 35.1912C30.1998 34.7272 28.808 34.3559 27.4143 34.3559C24.684 34.3559 22.9391 35.8966 22.9391 38.2182C22.9391 40.4473 24.35 41.6539 26.9313 42.0071L27.6013 42.0996C29.1039 42.3039 29.5507 42.7679 29.5507 43.5106C29.5507 44.3841 28.8252 44.997 27.4887 44.997C26.5608 44.997 25.8181 44.7554 24.7775 44.1798C24.5541 44.0491 24.2755 43.9564 23.9795 43.9564C23.2732 43.9564 22.7538 44.4948 22.7538 45.1639C22.7538 45.6088 22.9772 46.0365 23.403 46.3151C24.2391 46.8345 25.5947 47.3919 27.3779 47.3919C30.6636 47.3919 32.3362 45.7023 32.3362 43.4179C32.3363 41.1339 30.9806 39.9644 28.3613 39.593Z" fill="url(#paint2_linear_43_460)"/>
<path d="M39.7839 39.593L39.1157 39.4995C37.6476 39.2953 37.1472 38.8132 37.1472 38.1068C37.1472 37.3087 37.7411 36.7512 38.854 36.7512C39.6349 36.7512 40.4157 36.9746 41.0267 37.2714C41.2882 37.4013 41.567 37.4757 41.8266 37.4757C42.4948 37.4757 43.0142 36.9745 43.0142 36.2872C43.0142 35.8413 42.8099 35.47 42.365 35.1912C41.6224 34.7272 40.2287 34.3559 38.8369 34.3559C36.1067 34.3559 34.3617 35.8966 34.3617 38.2182C34.3617 40.4473 35.7726 41.6539 38.3539 42.0071L39.0221 42.0996C40.5266 42.3039 40.9715 42.7679 40.9715 43.5106C40.9715 44.3841 40.248 44.997 38.9114 44.997C37.9817 44.997 37.239 44.7554 36.2004 44.1798C35.977 44.0491 35.6982 43.9564 35.4005 43.9564C34.6959 43.9564 34.1748 44.4948 34.1748 45.1639C34.1748 45.6088 34.3982 46.0365 34.8258 46.3151C35.6621 46.8345 37.0177 47.3919 38.7989 47.3919C42.0866 47.3919 43.7571 45.7023 43.7571 43.4179C43.7571 41.1339 42.4015 39.9644 39.7839 39.593Z" fill="url(#paint3_linear_43_460)"/>
<defs>
<linearGradient id="paint0_linear_43_460" x1="28.4777" y1="0" x2="28.4777" y2="70.0001" gradientUnits="userSpaceOnUse">
<stop stop-color="#3CBEF4"/>
<stop offset="1" stop-color="#0F96CF"/>
</linearGradient>
<linearGradient id="paint1_linear_43_460" x1="16.3094" y1="34.3562" x2="16.3094" y2="47.3922" gradientUnits="userSpaceOnUse">
<stop stop-color="#3CBEF4"/>
<stop offset="1" stop-color="#0F96CF"/>
</linearGradient>
<linearGradient id="paint2_linear_43_460" x1="27.545" y1="34.3559" x2="27.545" y2="47.3919" gradientUnits="userSpaceOnUse">
<stop stop-color="#3CBEF4"/>
<stop offset="1" stop-color="#0F96CF"/>
</linearGradient>
<linearGradient id="paint3_linear_43_460" x1="38.9659" y1="34.3559" x2="38.9659" y2="47.3919" gradientUnits="userSpaceOnUse">
<stop stop-color="#3CBEF4"/>
<stop offset="1" stop-color="#0F96CF"/>
</linearGradient>
</defs>
</svg>
