<svg width="33" height="30" viewBox="0 0 33 30" fill="none" xmlns="http://www.w3.org/2000/svg">
<path d="M2.42272 30C1.77666 30 1.21136 29.7187 0.726816 29.1562C0.242272 28.5937 0 27.9375 0 27.1875V2.8125C0 2.0625 0.242272 1.40625 0.726816 0.84375C1.21136 0.28125 1.77666 0 2.42272 0H29.8802C30.5263 0 31.0916 0.28125 31.5761 0.84375C32.0606 1.40625 32.3029 2.0625 32.3029 2.8125V27.1875C32.3029 27.9375 32.0606 28.5937 31.5761 29.1562C31.0916 29.7187 30.5263 30 29.8802 30H2.42272ZM16.1515 15.8438L2.42272 5.39062V27.1875H29.8802V5.39062L16.1515 15.8438ZM16.1515 13.0312L29.7187 2.8125H2.62461L16.1515 13.0312ZM2.42272 5.39062V2.8125V27.1875V5.39062Z" fill="#E5EEF5"/>
</svg>
