<svg width="65" height="70" viewBox="0 0 65 70" fill="none" xmlns="http://www.w3.org/2000/svg">
<path d="M23.6612 35.6858H26.0956H40.7699L39.8803 45.7201L32.2156 47.6697L24.5509 45.7201L24.0205 39.7445H16.1998L17.278 51.9098L32.2156 55.7081L47.1538 51.9098L49.2238 28.5452H23.0282L22.3363 20.7378H49.9162L50.607 12.9467H13.8243L15.84 35.6858H23.6612Z" fill="url(#paint0_linear_43_456)"/>
<path d="M0 0L0.134531 1.45291L5.86059 63.2991L32.2156 70L58.5704 63.2991L64.4312 0H0ZM52.2456 57.8952L32.2156 62.9881L12.1856 57.8952L7.45418 6.79643H56.9769L52.2456 57.8952Z" fill="url(#paint1_linear_43_456)"/>
<defs>
<linearGradient id="paint0_linear_43_456" x1="32.2157" y1="12.9467" x2="32.2157" y2="55.7081" gradientUnits="userSpaceOnUse">
<stop stop-color="#3CBEF4"/>
<stop offset="1" stop-color="#0F96CF"/>
</linearGradient>
<linearGradient id="paint1_linear_43_456" x1="32.2156" y1="0" x2="32.2156" y2="70" gradientUnits="userSpaceOnUse">
<stop stop-color="#3CBEF4"/>
<stop offset="1" stop-color="#0F96CF"/>
</linearGradient>
</defs>
</svg>
