<svg width="66" height="64" viewBox="0 0 66 64" fill="none" xmlns="http://www.w3.org/2000/svg">
<path d="M37.3669 2.64031C36.0369 4.60906 35.2428 7.03719 35.2428 9.64906C35.2428 11.5259 35.6519 13.3088 36.3869 14.91L36.3541 14.8313C38.2791 19.1144 41.7791 22.4022 46.0972 24.0056L46.2153 24.045C46.3925 24.1128 46.5653 24.1697 46.7513 24.2353L46.9919 24.3097C47.2434 24.3906 47.4972 24.4825 47.7575 24.5394C48.9103 24.8981 50.2337 25.1038 51.6053 25.1038C57.0347 25.1038 61.7094 21.875 63.8116 17.2309L63.8466 17.1456C61.6766 19.8713 58.3559 21.6037 54.6328 21.6037C53.0906 21.6037 51.6184 21.3062 50.2687 20.7659L50.3475 20.7944C49.7744 20.65 49.3041 20.5012 48.8469 20.3263L48.9388 20.3569C48.2453 20.1141 47.6875 19.88 47.145 19.6175L47.2478 19.6634C46.1169 19.1122 45.1478 18.5106 44.2466 17.8259L44.2903 17.8587C40.4512 15.2337 37.9663 10.8784 37.9663 5.94125C37.9663 3.82375 38.4234 1.81125 39.2459 0L39.2087 0.0896875L37.3669 2.64031ZM22.2053 7.90344C20.2169 10.9725 19.0356 14.7241 19.0356 18.7513C19.0356 22.2994 19.9522 25.6331 21.5622 28.5294L21.5097 28.4266C22.1178 29.6253 22.7325 30.6381 23.415 31.6006L23.3625 31.5241C24.0034 32.5456 24.7209 33.4316 25.5281 34.2234L25.5303 34.2256C25.8234 34.5581 26.1406 34.8819 26.4709 35.21L26.7159 35.455C27.0266 35.7547 27.3503 36.0478 27.6719 36.3431L27.7156 36.3781C28.0846 36.7004 28.4616 37.0118 28.8466 37.3122C28.9406 37.3756 29.0194 37.4478 29.1091 37.5112C29.4919 37.8066 29.8791 38.0909 30.2794 38.3753L30.3209 38.3994C30.4894 38.5219 30.6709 38.6334 30.8612 38.7537C30.9378 38.8019 31.0253 38.8675 31.1063 38.9178C31.395 39.1038 31.6794 39.2787 31.9747 39.4559C32.0206 39.4756 32.0622 39.4997 32.1059 39.5194C32.3509 39.6703 32.62 39.8147 32.8759 39.9481C32.9656 40.0028 33.0531 40.0444 33.1494 40.0947C33.3287 40.1844 33.5103 40.2806 33.6875 40.3725L33.775 40.4097C34.1447 40.5934 34.5209 40.7619 34.8906 40.9281C34.9825 40.9653 35.0634 40.9959 35.1422 41.0353C35.4463 41.1666 35.7547 41.2913 36.0609 41.4094C36.1966 41.4553 36.3256 41.51 36.4547 41.5516C36.7325 41.6544 37.0278 41.7506 37.3013 41.8469L37.6841 41.9694C38.0144 42.0941 38.4256 42.2166 38.8456 42.3128L38.9113 42.3259C60.5894 45.9156 65.6075 29.2184 65.6075 29.2184C61.8056 34.1819 55.8753 37.3516 49.2056 37.3516C46.9984 37.3516 44.8722 37.0037 42.8794 36.3628L43.0259 36.4044C42.6132 36.2979 42.2042 36.1798 41.7987 36.05C41.6675 36.0128 41.5537 35.9712 41.4269 35.9319C41.1425 35.8334 40.8494 35.7416 40.5737 35.6344L40.18 35.4878C39.8716 35.3653 39.5588 35.2494 39.2612 35.1181C39.1694 35.0766 39.0841 35.0503 39.0119 35.0088C38.6291 34.8359 38.2441 34.6675 37.87 34.4837L37.3078 34.1906L36.9819 34.0266C36.7369 33.8968 36.4955 33.7604 36.2578 33.6175C36.19 33.5847 36.1353 33.5519 36.0828 33.5169L36.0894 33.5212C35.8006 33.3419 35.4966 33.1669 35.2209 32.9809C35.1291 32.9284 35.0438 32.8672 34.9562 32.8125L34.3875 32.4406C33.9937 32.1672 33.6087 31.8719 33.2172 31.5853C33.1297 31.5066 33.0444 31.4409 32.9613 31.3687C28.8728 28.1903 25.7884 23.8962 24.1522 18.9438L24.0997 18.76C23.4784 16.9334 23.1219 14.8291 23.1219 12.6416C23.1219 9.11531 24.0516 5.80562 25.6812 2.94437L25.6309 3.04063L22.2053 7.90344ZM4.17813 14.9341C1.55531 19.0728 0 24.1128 0 29.5159C0 34.4728 1.31031 39.1234 3.60281 43.1397L3.53063 43.0041C3.63125 43.2206 3.74281 43.4241 3.85219 43.6297C3.91562 43.7719 3.98563 43.9031 4.06219 44.0387C4.09719 44.1131 4.1475 44.1919 4.19125 44.2619C4.26344 44.4041 4.33781 44.5397 4.41219 44.6775L4.84094 45.4037C4.92188 45.5372 4.99625 45.6684 5.08594 45.8019C5.23906 46.0578 5.41406 46.3137 5.57156 46.5697C5.64156 46.6791 5.70719 46.7819 5.78813 46.8891C6.05354 47.3061 6.33573 47.7116 6.63469 48.1053C6.84688 48.3984 7.06125 48.6828 7.29094 48.9672C7.36531 49.07 7.44844 49.175 7.525 49.2822L8.12656 50.0172C8.20312 50.1003 8.2775 50.2009 8.35625 50.2884C8.62313 50.61 8.9075 50.925 9.19188 51.2444L9.205 51.2619C9.55938 51.7059 9.94 52.0997 10.3556 52.4541L10.3666 52.465C10.5853 52.6925 10.8041 52.9156 11.0359 53.1344L11.3116 53.3991C11.6156 53.6856 11.9219 53.97 12.2413 54.2434L12.2544 54.2522L12.4097 54.3878C12.6875 54.6306 12.9697 54.8734 13.2562 55.0988L13.5975 55.3853C13.8294 55.5713 14.0722 55.7484 14.3084 55.9322L14.6825 56.2187C14.9362 56.4091 15.2075 56.5994 15.4678 56.7853C15.5641 56.8531 15.6581 56.9209 15.7566 56.9844L15.8375 57.0478L16.6031 57.5531L16.9312 57.7719C17.3359 58.0278 17.7341 58.275 18.1344 58.5156C18.2459 58.5703 18.3641 58.6359 18.4713 58.7016C18.7666 58.87 19.0728 59.0428 19.3703 59.2025C19.5344 59.2944 19.7028 59.3753 19.8734 59.4584C20.0791 59.5722 20.2913 59.6859 20.5122 59.7997C20.5712 59.8172 20.6216 59.8391 20.6697 59.8653L20.6653 59.8631C20.755 59.9047 20.8403 59.9484 20.9278 59.9922C21.2559 60.1562 21.5972 60.3137 21.9538 60.4712C22.0391 60.5041 22.1069 60.5347 22.1747 60.5697L22.1616 60.5631C22.5553 60.7359 22.9513 60.9 23.3581 61.0597C23.4522 61.0859 23.5484 61.1341 23.6447 61.1691C24.0144 61.3091 24.3928 61.4512 24.7691 61.5847L24.9047 61.635C25.3247 61.7772 25.7381 61.9128 26.1625 62.0441C26.2609 62.0703 26.3616 62.1075 26.4666 62.1337C26.9041 62.265 27.3241 62.4203 27.7616 62.5078C55.8425 67.6244 64.0041 45.6225 64.0041 45.6225C57.1484 54.5497 44.9837 56.9034 33.46 54.285C33.0334 54.1866 32.6069 54.0509 32.1759 53.9241C31.6553 53.7695 31.1383 53.604 30.625 53.4275L30.4566 53.3619C30.0847 53.2372 29.7259 53.0972 29.3628 52.9572C29.2636 52.9178 29.1637 52.8814 29.0631 52.8478C28.6584 52.6838 28.2712 52.5175 27.8797 52.3447C27.7944 52.3184 27.7244 52.2791 27.6391 52.2462C27.308 52.0946 26.9784 51.94 26.6503 51.7825C26.5511 51.7387 26.4549 51.6914 26.3616 51.6403C26.1056 51.52 25.8475 51.38 25.5959 51.2487C25.4239 51.1656 25.2532 51.0781 25.0841 50.9862C24.7734 50.8222 24.4628 50.645 24.1544 50.4744C24.0625 50.4087 23.9553 50.3541 23.8481 50.295C23.4442 50.0558 23.0439 49.8101 22.6472 49.5578C22.5378 49.4907 22.4306 49.42 22.3256 49.3456C22.0354 49.1662 21.751 48.9774 21.4725 48.7791C21.3762 48.7156 21.2887 48.6478 21.1903 48.58C20.9176 48.3919 20.6485 48.1986 20.3831 48.0003C20.2694 47.9084 20.1447 47.8209 20.0222 47.7269C19.7816 47.5366 19.5387 47.3572 19.2981 47.1581L18.9766 46.8978C18.6659 46.6484 18.3604 46.3932 18.06 46.1322C18.0294 46.1016 17.9966 46.0731 17.9616 46.0491L17.9594 46.0469L17.01 45.1828L16.7366 44.9269C16.5134 44.6972 16.2837 44.4784 16.0541 44.2553L15.7872 43.9819C15.4984 43.6946 15.217 43.4 14.9428 43.0981L14.9012 43.0544C14.6125 42.7372 14.3281 42.4112 14.0459 42.0831C13.9716 42.0022 13.9016 41.9081 13.8272 41.8184L13.2059 41.0616C12.8909 40.6561 12.581 40.2471 12.2762 39.8344C8.3475 34.8556 5.97406 28.4922 5.97406 21.5731C5.97406 17.0822 6.97375 12.8231 8.76313 9.01031L8.68656 9.19188L4.17813 14.9341Z" fill="url(#paint0_linear_43_454)"/>
<defs>
<linearGradient id="paint0_linear_43_454" x1="32.8037" y1="0" x2="32.8037" y2="63.2795" gradientUnits="userSpaceOnUse">
<stop stop-color="#3CBEF4"/>
<stop offset="1" stop-color="#0F96CF"/>
</linearGradient>
</defs>
</svg>
