<svg width="328" height="37" viewBox="0 0 328 37" fill="none" xmlns="http://www.w3.org/2000/svg">
<path d="M0.512 36V2.4H16.256C20.288 2.4 23.36 3.2 25.472 4.8C27.584 6.368 28.64 8.48 28.64 11.136C28.64 12.928 28.224 14.464 27.392 15.744C26.56 16.992 25.44 17.968 24.032 18.672C22.656 19.344 21.152 19.68 19.52 19.68L20.384 17.952C22.272 17.952 23.968 18.304 25.472 19.008C26.976 19.68 28.16 20.672 29.024 21.984C29.92 23.296 30.368 24.928 30.368 26.88C30.368 29.76 29.264 32 27.056 33.6C24.848 35.2 21.568 36 17.216 36H0.512ZM6.752 31.104H16.832C19.168 31.104 20.96 30.72 22.208 29.952C23.456 29.184 24.08 27.952 24.08 26.256C24.08 24.592 23.456 23.376 22.208 22.608C20.96 21.808 19.168 21.408 16.832 21.408H6.272V16.56H15.584C17.76 16.56 19.424 16.176 20.576 15.408C21.76 14.64 22.352 13.488 22.352 11.952C22.352 10.384 21.76 9.216 20.576 8.448C19.424 7.68 17.76 7.296 15.584 7.296H6.752V31.104ZM36.4516 36V10.368H42.1636V17.424L41.4916 15.36C42.2596 13.632 43.4596 12.32 45.0916 11.424C46.7556 10.528 48.8196 10.08 51.2836 10.08V15.792C51.0276 15.728 50.7876 15.696 50.5636 15.696C50.3396 15.664 50.1156 15.648 49.8916 15.648C47.6196 15.648 45.8116 16.32 44.4676 17.664C43.1236 18.976 42.4516 20.944 42.4516 23.568V36H36.4516ZM67.4559 36.336C65.2799 36.336 63.3599 35.936 61.6959 35.136C60.0319 34.304 58.7359 33.056 57.8079 31.392C56.8799 29.696 56.4159 27.568 56.4159 25.008V10.368H62.4159V24.192C62.4159 26.496 62.9279 28.224 63.9519 29.376C65.0079 30.496 66.4959 31.056 68.4159 31.056C69.8239 31.056 71.0399 30.768 72.0639 30.192C73.1199 29.616 73.9359 28.752 74.5119 27.6C75.1199 26.448 75.4239 25.024 75.4239 23.328V10.368H81.4239V36H75.7119V29.088L76.7199 31.2C75.8559 32.864 74.5919 34.144 72.9279 35.04C71.2639 35.904 69.4399 36.336 67.4559 36.336ZM103.824 10.08C105.872 10.08 107.696 10.48 109.296 11.28C110.928 12.08 112.208 13.312 113.136 14.976C114.064 16.608 114.528 18.72 114.528 21.312V36H108.528V22.08C108.528 19.808 107.984 18.112 106.896 16.992C105.84 15.872 104.352 15.312 102.432 15.312C101.024 15.312 99.7758 15.6 98.6878 16.176C97.5998 16.752 96.7518 17.616 96.1438 18.768C95.5678 19.888 95.2798 21.312 95.2798 23.04V36H89.2798V10.368H94.9918V17.28L93.9838 15.168C94.8798 13.536 96.1758 12.288 97.8718 11.424C99.5998 10.528 101.584 10.08 103.824 10.08ZM133.706 36.336C131.082 36.336 128.746 35.776 126.698 34.656C124.65 33.504 123.034 31.936 121.85 29.952C120.666 27.968 120.074 25.712 120.074 23.184C120.074 20.624 120.666 18.368 121.85 16.416C123.034 14.432 124.65 12.88 126.698 11.76C128.746 10.64 131.082 10.08 133.706 10.08C136.362 10.08 138.714 10.64 140.762 11.76C142.842 12.88 144.458 14.416 145.61 16.368C146.794 18.32 147.386 20.592 147.386 23.184C147.386 25.712 146.794 27.968 145.61 29.952C144.458 31.936 142.842 33.504 140.762 34.656C138.714 35.776 136.362 36.336 133.706 36.336ZM133.706 31.2C135.178 31.2 136.49 30.88 137.642 30.24C138.794 29.6 139.69 28.672 140.33 27.456C141.002 26.24 141.338 24.816 141.338 23.184C141.338 21.52 141.002 20.096 140.33 18.912C139.69 17.696 138.794 16.768 137.642 16.128C136.49 15.488 135.194 15.168 133.754 15.168C132.282 15.168 130.97 15.488 129.818 16.128C128.698 16.768 127.802 17.696 127.13 18.912C126.458 20.096 126.122 21.52 126.122 23.184C126.122 24.816 126.458 26.24 127.13 27.456C127.802 28.672 128.698 29.6 129.818 30.24C130.97 30.88 132.266 31.2 133.706 31.2ZM182.661 36.48C180.037 36.48 177.621 36.064 175.413 35.232C173.237 34.368 171.333 33.168 169.701 31.632C168.069 30.064 166.805 28.224 165.909 26.112C165.013 24 164.565 21.696 164.565 19.2C164.565 16.704 165.013 14.4 165.909 12.288C166.805 10.176 168.069 8.352 169.701 6.816C171.365 5.248 173.301 4.048 175.509 3.216C177.717 2.352 180.133 1.92 182.757 1.92C185.605 1.92 188.165 2.384 190.437 3.312C192.741 4.24 194.677 5.6 196.245 7.392L192.309 11.232C190.997 9.92 189.573 8.96 188.037 8.352C186.533 7.712 184.869 7.392 183.045 7.392C181.285 7.392 179.653 7.68 178.149 8.256C176.645 8.832 175.349 9.648 174.261 10.704C173.173 11.76 172.325 13.008 171.717 14.448C171.141 15.888 170.853 17.472 170.853 19.2C170.853 20.896 171.141 22.464 171.717 23.904C172.325 25.344 173.173 26.608 174.261 27.696C175.349 28.752 176.629 29.568 178.101 30.144C179.573 30.72 181.205 31.008 182.997 31.008C184.661 31.008 186.261 30.752 187.797 30.24C189.365 29.696 190.853 28.8 192.261 27.552L195.813 32.208C194.053 33.616 192.005 34.688 189.669 35.424C187.365 36.128 185.029 36.48 182.661 36.48ZM189.909 31.392V18.816H195.813V32.208L189.909 31.392ZM219.259 36V30.816L218.923 29.712V20.64C218.923 18.88 218.395 17.52 217.339 16.56C216.283 15.568 214.683 15.072 212.539 15.072C211.099 15.072 209.675 15.296 208.267 15.744C206.891 16.192 205.723 16.816 204.763 17.616L202.411 13.248C203.787 12.192 205.419 11.408 207.307 10.896C209.227 10.352 211.211 10.08 213.259 10.08C216.971 10.08 219.835 10.976 221.851 12.768C223.899 14.528 224.923 17.264 224.923 20.976V36H219.259ZM211.195 36.336C209.275 36.336 207.595 36.016 206.155 35.376C204.715 34.704 203.595 33.792 202.795 32.64C202.027 31.456 201.643 30.128 201.643 28.656C201.643 27.216 201.979 25.92 202.651 24.768C203.355 23.616 204.491 22.704 206.059 22.032C207.627 21.36 209.707 21.024 212.299 21.024H219.739V25.008H212.731C210.683 25.008 209.307 25.344 208.603 26.016C207.899 26.656 207.547 27.456 207.547 28.416C207.547 29.504 207.979 30.368 208.843 31.008C209.707 31.648 210.907 31.968 212.443 31.968C213.915 31.968 215.227 31.632 216.379 30.96C217.563 30.288 218.411 29.296 218.923 27.984L219.931 31.584C219.355 33.088 218.315 34.256 216.811 35.088C215.339 35.92 213.467 36.336 211.195 36.336ZM232.624 36V0.383998H238.624V36H232.624ZM253.315 36L242.322 10.368H248.562L258.019 32.976H254.947L264.739 10.368H270.499L259.507 36H253.315ZM289.244 36V30.816L288.908 29.712V20.64C288.908 18.88 288.38 17.52 287.324 16.56C286.268 15.568 284.668 15.072 282.524 15.072C281.084 15.072 279.66 15.296 278.252 15.744C276.876 16.192 275.708 16.816 274.748 17.616L272.396 13.248C273.772 12.192 275.404 11.408 277.292 10.896C279.212 10.352 281.196 10.08 283.244 10.08C286.956 10.08 289.82 10.976 291.836 12.768C293.884 14.528 294.908 17.264 294.908 20.976V36H289.244ZM281.18 36.336C279.26 36.336 277.58 36.016 276.14 35.376C274.7 34.704 273.58 33.792 272.78 32.64C272.012 31.456 271.628 30.128 271.628 28.656C271.628 27.216 271.964 25.92 272.636 24.768C273.34 23.616 274.476 22.704 276.044 22.032C277.612 21.36 279.692 21.024 282.284 21.024H289.724V25.008H282.716C280.668 25.008 279.292 25.344 278.588 26.016C277.884 26.656 277.532 27.456 277.532 28.416C277.532 29.504 277.964 30.368 278.828 31.008C279.692 31.648 280.892 31.968 282.428 31.968C283.9 31.968 285.212 31.632 286.364 30.96C287.548 30.288 288.396 29.296 288.908 27.984L289.916 31.584C289.34 33.088 288.3 34.256 286.796 35.088C285.324 35.92 283.452 36.336 281.18 36.336ZM287.228 6.864C286.46 6.864 285.756 6.72 285.116 6.432C284.508 6.112 283.948 5.744 283.436 5.328C282.956 4.88 282.492 4.496 282.044 4.176C281.596 3.856 281.148 3.696 280.7 3.696C280.028 3.696 279.484 3.952 279.068 4.464C278.652 4.976 278.412 5.68 278.348 6.576H275.132C275.196 4.592 275.676 3.024 276.572 1.872C277.5 0.719998 278.748 0.143998 280.316 0.143998C281.084 0.143998 281.788 0.303998 282.428 0.623998C283.068 0.943997 283.628 1.312 284.108 1.728C284.62 2.144 285.1 2.512 285.548 2.832C285.996 3.152 286.428 3.312 286.844 3.312C287.516 3.312 288.06 3.072 288.476 2.592C288.924 2.112 289.164 1.44 289.196 0.575998H292.412C292.38 2.432 291.9 3.952 290.972 5.136C290.044 6.288 288.796 6.864 287.228 6.864ZM314.175 36.336C311.551 36.336 309.215 35.776 307.167 34.656C305.119 33.504 303.503 31.936 302.319 29.952C301.135 27.968 300.543 25.712 300.543 23.184C300.543 20.624 301.135 18.368 302.319 16.416C303.503 14.432 305.119 12.88 307.167 11.76C309.215 10.64 311.551 10.08 314.175 10.08C316.831 10.08 319.183 10.64 321.231 11.76C323.311 12.88 324.927 14.416 326.079 16.368C327.263 18.32 327.855 20.592 327.855 23.184C327.855 25.712 327.263 27.968 326.079 29.952C324.927 31.936 323.311 33.504 321.231 34.656C319.183 35.776 316.831 36.336 314.175 36.336ZM314.175 31.2C315.647 31.2 316.959 30.88 318.111 30.24C319.263 29.6 320.159 28.672 320.799 27.456C321.471 26.24 321.807 24.816 321.807 23.184C321.807 21.52 321.471 20.096 320.799 18.912C320.159 17.696 319.263 16.768 318.111 16.128C316.959 15.488 315.663 15.168 314.223 15.168C312.751 15.168 311.439 15.488 310.287 16.128C309.167 16.768 308.271 17.696 307.599 18.912C306.927 20.096 306.591 21.52 306.591 23.184C306.591 24.816 306.927 26.24 307.599 27.456C308.271 28.672 309.167 29.6 310.287 30.24C311.439 30.88 312.735 31.2 314.175 31.2Z" fill="#F5F5F5"/>
</svg>
