<svg width="66" height="60" viewBox="0 0 66 60" fill="none" xmlns="http://www.w3.org/2000/svg">
<path d="M53.9574 19.7077C53.2583 19.4689 52.5542 19.2465 51.8451 19.0405C51.9627 18.562 52.0712 18.0808 52.1705 17.5968C53.7701 9.81749 52.7242 3.5503 49.1545 1.48722C45.7365 -0.49247 40.1311 1.57062 34.4764 6.50343C33.9204 6.99015 33.3758 7.49145 32.8426 8.00733C32.4871 7.66463 32.1225 7.32921 31.7488 7.00108C25.8221 1.72647 19.8816 -0.495204 16.316 1.57472C12.898 3.55851 11.8822 9.44972 13.3219 16.823C13.4659 17.5521 13.6277 18.2781 13.8072 19.0009C12.9664 19.2401 12.1543 19.4958 11.3777 19.7665C4.43789 22.1933 0 25.9982 0 29.9439C0 34.0208 4.76328 38.1087 11.9998 40.5874C12.5868 40.787 13.1792 40.9725 13.7771 41.1439C13.583 41.9177 13.4112 42.7002 13.2617 43.4913C11.8945 50.7374 12.9609 56.4892 16.3721 58.4607C19.8953 60.4964 25.8057 58.4046 31.567 53.3597C32.0227 52.9605 32.4785 52.5389 32.9342 52.095C33.5102 52.6519 34.1027 53.1924 34.7115 53.7165C40.2896 58.5263 45.798 60.4691 49.2037 58.4921C52.7242 56.4495 53.8686 50.2698 52.3824 42.7517C52.2685 42.1775 52.1372 41.5914 51.9887 40.9935C52.4043 40.8704 52.8113 40.7433 53.2096 40.612C60.7291 38.1142 65.6277 34.0755 65.6277 29.948C65.625 25.9831 61.0449 22.1536 53.9574 19.7077ZM36.3207 8.62257C41.1646 4.39659 45.6928 2.72862 47.7572 3.92081C49.9543 5.19093 50.8088 10.3124 49.4279 17.0294C49.3368 17.4669 49.2383 17.903 49.1326 18.3378C46.2419 17.6803 43.3105 17.2162 40.358 16.9487C38.6675 14.5136 36.8144 12.1955 34.8113 10.0103C35.3017 9.53448 35.8039 9.07192 36.318 8.62257H36.3207ZM19.3771 33.3153C19.9705 34.4638 20.5908 35.5981 21.2379 36.7183C21.8969 37.8612 22.5837 38.9874 23.2982 40.0966C21.2667 39.8757 19.2479 39.5504 17.2498 39.1218C17.8295 37.246 18.5432 35.2978 19.3771 33.3153ZM19.3771 26.7077C18.5568 24.7677 17.8623 22.8591 17.2922 21.0161C19.1652 20.5964 21.1613 20.2532 23.2422 19.9935C22.5449 21.0817 21.8741 22.186 21.2297 23.3062C20.5853 24.4263 19.9664 25.5602 19.373 26.7077H19.3771ZM20.8674 30.0122C21.7314 28.2103 22.662 26.4429 23.6592 24.7103C24.6554 22.9785 25.7159 21.2864 26.8406 19.6339C28.793 19.4862 30.7945 19.4083 32.8166 19.4083C34.8387 19.4083 36.8525 19.4862 38.8035 19.6353C39.9164 21.2841 40.9705 22.9703 41.9658 24.6939C42.9611 26.4174 43.904 28.1765 44.7945 29.9712C43.9159 31.7795 42.9753 33.5541 41.9727 35.295C40.9783 37.0268 39.9301 38.7239 38.8281 40.3864C36.8799 40.5232 34.8633 40.5984 32.8125 40.5984C30.7617 40.5984 28.7834 40.5341 26.8707 40.4097C25.7378 38.7517 24.6686 37.0523 23.6633 35.3114C22.6579 33.5706 21.7246 31.8041 20.8633 30.0122H20.8674ZM44.3994 36.6991C45.0602 35.5525 45.6946 34.3909 46.3025 33.2142C47.1359 35.1037 47.8715 37.0349 48.5064 39.0001C46.4849 39.4553 44.4409 39.8044 42.3828 40.046C43.0773 38.9441 43.7495 37.8284 44.3994 36.6991ZM46.2752 26.7091C45.67 25.5561 45.0406 24.4168 44.3871 23.2911C43.7491 22.181 43.0842 21.0845 42.3924 20.0017C44.4855 20.2669 46.4939 20.6196 48.3766 21.0503C47.7713 22.9706 47.0699 24.8592 46.2752 26.7091ZM32.8439 12.0187C34.2091 13.5104 35.4982 15.0701 36.7063 16.6917C34.1223 16.5687 31.5365 16.5687 28.9488 16.6917C30.2244 15.0046 31.5301 13.4392 32.8439 12.0187ZM17.727 4.00421C19.9227 2.72999 24.7775 4.55108 29.8949 9.09972C30.2217 9.39093 30.5512 9.69581 30.8793 10.0116C28.8659 12.1966 26.9997 14.5126 25.293 16.9446C22.347 17.2101 19.4215 17.6668 16.5348 18.3118C16.368 17.641 16.2176 16.9656 16.0836 16.2857C14.8463 9.96515 15.6652 5.2005 17.727 4.00421ZM14.5264 38.4368C13.9795 38.281 13.4395 38.1119 12.9062 37.9296C9.70703 36.8359 7.06426 35.4085 5.25 33.854C3.62578 32.4608 2.80273 31.0704 2.80273 29.9439C2.80273 27.5499 6.36562 24.4956 12.3074 22.4243C13.0539 22.1646 13.8068 21.9271 14.566 21.712C15.4485 24.548 16.5172 27.3226 17.7652 30.0177C16.5023 32.7501 15.4204 35.5625 14.5264 38.4368ZM29.7199 51.2433C27.1729 53.4745 24.6217 55.0564 22.3727 55.8534C20.352 56.5685 18.7428 56.589 17.7707 56.0271C15.7008 54.8308 14.8395 50.211 16.0139 44.015C16.1533 43.2858 16.3128 42.5566 16.4924 41.8275C19.408 42.4555 22.3629 42.8844 25.3367 43.1112C27.0601 45.5559 28.9418 47.8851 30.9695 50.0839C30.5621 50.4845 30.1451 50.87 29.7199 51.2433ZM32.9219 48.0687C31.593 46.6318 30.2668 45.0417 28.9734 43.3327C30.2303 43.3819 31.51 43.4066 32.8125 43.4066C34.1496 43.4066 35.473 43.3778 36.7773 43.3191C35.5737 44.9667 34.2869 46.552 32.9219 48.0687ZM49.9461 51.9775C49.5551 54.0884 48.7689 55.4966 47.7969 56.0599C45.7283 57.2603 41.3055 55.7003 36.5367 51.5864C35.9898 51.1161 35.443 50.6116 34.8865 50.0825C36.8748 47.8752 38.7124 45.5366 40.3867 43.0825C43.377 42.8292 46.3463 42.3701 49.2734 41.7085C49.4074 42.2499 49.5259 42.7804 49.6289 43.2999C50.2865 46.6222 50.3809 49.6273 49.9461 51.9775ZM52.325 37.9446C51.9668 38.0636 51.5977 38.1784 51.223 38.2905C50.3052 35.4412 49.1948 32.6576 47.8994 29.9589C49.1462 27.2962 50.2131 24.5529 51.0932 21.7476C51.7645 21.9431 52.4166 22.1482 53.0441 22.3655C59.1172 24.4601 62.8223 27.5609 62.8223 29.9439C62.8223 32.4868 58.8205 35.7872 52.325 37.9446Z" fill="url(#paint0_linear_45_20)"/>
<path d="M32.8125 35.8173C33.976 35.8211 35.1145 35.4795 36.0838 34.8358C37.0531 34.1922 37.8096 33.2753 38.2575 32.2014C38.7054 31.1276 38.8246 29.9449 38.5999 28.8032C38.3752 27.6616 37.8168 26.6123 36.9954 25.7882C36.174 24.9641 35.1265 24.4023 33.9856 24.1739C32.8447 23.9455 31.6616 24.0608 30.5863 24.5052C29.511 24.9496 28.5917 25.7031 27.9448 26.6703C27.298 27.6375 26.9527 28.7748 26.9527 29.9384C26.9511 30.7093 27.1014 31.4729 27.3951 32.1856C27.6888 32.8984 28.12 33.5463 28.6642 34.0922C29.2084 34.6382 29.8549 35.0716 30.5667 35.3676C31.2785 35.6636 32.0416 35.8164 32.8125 35.8173Z" fill="url(#paint1_linear_45_20)"/>
<defs>
<linearGradient id="paint0_linear_45_20" x1="32.8139" y1="0.741943" x2="32.8139" y2="59.2577" gradientUnits="userSpaceOnUse">
<stop stop-color="#3CBEF4"/>
<stop offset="1" stop-color="#0F96CF"/>
</linearGradient>
<linearGradient id="paint1_linear_45_20" x1="32.8316" y1="24.0595" x2="32.8316" y2="35.8173" gradientUnits="userSpaceOnUse">
<stop stop-color="#3CBEF4"/>
<stop offset="1" stop-color="#0F96CF"/>
</linearGradient>
</defs>
</svg>
