<svg width="70" height="70" viewBox="0 0 70 70" fill="none" xmlns="http://www.w3.org/2000/svg">
<path fill-rule="evenodd" clip-rule="evenodd" d="M44.1588 0H3.98156V40.1772H11.2865V32.8722V29.0372V7.30494H41.1272L55.1162 21.2939V29.0372V32.8722V40.1772H62.4211V18.2624L44.1588 0ZM16.4252 47.5223L11.2533 54.6739L6.14711 47.5223H0.401772L8.11214 58.2021L0 69.4591H5.833L11.0086 62.1359L16.2097 69.4591H22.1669L14.1058 58.3263L22.0755 47.5223H16.4252ZM39.5639 59.3424C39.1914 60.4857 38.7641 61.9649 38.2783 63.7692C37.7962 61.943 37.3688 60.4674 37.0109 59.3424L33.2196 47.4829H25.8964V69.4196H30.462V51.6613C30.966 53.5533 31.408 55.0691 31.7769 56.2159L36.0503 69.4196H40.2908L44.6884 55.8434C45.1413 54.4591 45.5467 53.0675 45.8937 51.6613V69.4196H50.6492V47.4829H43.4063L39.5639 59.3424ZM55.6348 47.5223V69.4591H70V65.5874H60.5766V47.5223H55.6348Z" fill="url(#paint0_linear_44_470)"/>
<defs>
<linearGradient id="paint0_linear_44_470" x1="35" y1="0" x2="35" y2="69.4591" gradientUnits="userSpaceOnUse">
<stop stop-color="#3CBEF4"/>
<stop offset="1" stop-color="#0F96CF"/>
</linearGradient>
</defs>
</svg>
